<svg id="Ebene_1" data-name="Ebene 1" xmlns="http://www.w3.org/2000/svg" viewBox="0 0 80 80"><defs><style>.cls-1{fill:none;}.cls-2{fill:#fff;}</style></defs><rect class="cls-1" width="80" height="80"/><path class="cls-2" d="M22.68,47.5C8.46,48,12.83,30.88,20.46,24.94c2.19-1,3.73-3.87,6.27-4.8V19.6c1.28-.58,1.5-1.14,2.34-2.22,1.75.31,1.94-1.13,3.26-1.92,2.08.36,3.35,1.78,4.42,3.51.31,0,.24-.2.55-.13.57,1.21,1.13,2.77-.3,3.64.14.48.92.62.42,1.29C48.61,40.42,40.42,47.2,22.68,47.5Zm.54-15.2c-5.94,7.89-3.06,8.94,5.47,7.47,9.62-3,8.46-5,3.59-13-.12.29-.52.75-.87.34-.26,1-1.52.78-2.13.25C27.06,28.81,25.26,31,23.22,32.3Z"/><path class="cls-2" d="M42.05,63.22c-5.18-7.52,3.17-22,6-29.62,2.5.86,6.78,1.26,6.27,4.93-2.49,6.1-5.4,12.14-6.56,18.71,5.81-.83,18.26-3.54,18,5.35-3.66,1.89-7.73.18-11.82,1C50.41,64.4,44.43,67.19,42.05,63.22Z"/><path class="cls-2" d="M76,34.34c3.18,1.91-3.13,2.53-4.6,2.34-.42,5.93-5.19,7.57-5.11.72-1.84-.06-4-.24-5.13-2a1.1,1.1,0,0,0-.25-1.21c.26,0,.45-.54.33-.72,2.19-2.41,3.34-4,6.58-1.62.61-.34.27-.86.51-1.39s.65-.83.54-1.4c2-2.13,2.21-1.15,3.68.59.12.65-.64,1.81.06,2.26-.18.46-.31.85-.4,1.15C73.4,33.3,75.39,32.85,76,34.34Zm-11.35-.13c.07.43.83.18,1.16.13C65.43,33.92,64.85,33.49,64.61,34.21Z"/></svg>